Coordinates
version=1
nRows=7
nColumns=63
inDegrees=yes

Units are S.I. units (second, meters, Newtons, ...)
If the header above contains a line with 'inDegrees', this indicates whether rotational values are in degrees (yes) or radians (no).

endheader
time	pelvis_tilt	pelvis_list	pelvis_rotation	pelvis_tx	pelvis_ty	pelvis_tz	hip_flexion_r	hip_adduction_r	hip_rotation_r	knee_angle_r	knee_angle_r_beta	ankle_angle_r	subtalar_angle_r	mtp_angle_r	hip_flexion_l	hip_adduction_l	hip_rotation_l	knee_angle_l	knee_angle_l_beta	ankle_angle_l	subtalar_angle_l	mtp_angle_l	L5_S1_Flex_Ext	L5_S1_Lat_Bending	L5_S1_axial_rotation	L4_L5_Flex_Ext	L4_L5_Lat_Bending	L4_L5_axial_rotation	L3_L4_Flex_Ext	L3_L4_Lat_Bending	L3_L4_axial_rotation	L2_L3_Flex_Ext	L2_L3_Lat_Bending	L2_L3_axial_rotation	L1_L2_Flex_Ext	L1_L2_Lat_Bending	L1_L2_axial_rotation	L1_T12_Flex_Ext	L1_T12_Lat_Bending	L1_T12_axial_rotation	Abs_r3	Abs_r2	Abs_r1	Abs_t1	Abs_t2	neck_flexion	neck_bending	neck_rotation	arm_flex_r	arm_add_r	arm_rot_r	elbow_flex_r	pro_sup_r	wrist_flex_r	wrist_dev_r	arm_flex_l	arm_add_l	arm_rot_l	elbow_flex_l	pro_sup_l	wrist_flex_l	wrist_dev_l
      0.00800000	    -58.16370998	     -7.07468383	      3.32162040	     -0.25782955	      1.09305041	     -0.04356857	     96.79235717	     -9.20775780	    -12.96188912	     52.48677968	      0.91606712	     16.27888505	      6.36621083	      0.00000000	    115.12681117	     -3.79230627	      6.98662559	    108.08100590	      1.88636941	     22.76391990	      8.26678984	      0.00000000	     -0.08934862	      1.10913178	     -0.64794866	     -0.16592932	      1.47514527	     -0.68844545	     -0.14679085	      2.69674301	     -0.68844545	     -0.10211654	      2.69674301	     -0.56695508	     -0.08296913	      2.26174152	     -0.52645829	     -0.05105380	      1.71804513	     -0.48596149	     -0.63820825	     12.54672051	     -3.60369606	      0.00000000	      0.00000000	      0.00000000	      0.00000000	      0.00000001	     64.17579507	    -17.43888505	     15.13008853	     47.88445198	     70.65155216	      0.00000000	      2.71997666	     56.28722833	    -14.52460741	      5.60752574	     54.07646848	     69.46013800	      0.00000000	      2.71997666
      0.01700000	    -57.97496468	     -6.25422831	      3.07576440	     -0.25429864	      1.09027517	     -0.04130962	     93.25100897	     -8.40577013	    -13.50756920	     48.49357426	      0.84637254	     14.76424585	      6.92160254	      0.00000000	    118.67321247	     -4.82665802	      6.03289663	    112.23710319	      1.95890699	     19.89091415	     13.61241426	      0.00000000	     -0.09056371	      0.94970417	     -0.72521692	     -0.16818586	      1.26310654	     -0.77054297	     -0.14878711	      2.30911071	     -0.77054297	     -0.10350526	      2.30911071	     -0.63456480	     -0.08409746	      1.93663674	     -0.58923874	     -0.05174810	      1.47109175	     -0.54391269	     -0.64688749	     10.74324348	     -4.03343892	      0.00000000	      0.00000000	      0.00000000	      0.00000000	      0.00000001	     63.30902719	    -15.86605928	     13.89798587	     47.44617977	     69.66677735	      0.00000000	      2.85694302	     55.55712837	    -16.33157308	      7.15359242	     55.53349602	     68.77749466	      0.00000000	      2.85694302
      0.02500000	    -58.01685691	     -6.00657199	      3.25754288	     -0.25422349	      1.09042586	     -0.04156939	     92.41020628	     -8.56023709	    -13.70904792	     47.58358020	      0.83049014	     14.17003862	      7.07503493	      0.00000000	    119.55836310	     -4.78149651	      5.50950686	    112.69139601	      1.96683590	     19.79526637	     13.66827611	      0.00000000	     -0.09048875	      0.91066875	     -0.75744687	     -0.16804666	      1.21118943	     -0.80478730	     -0.14866397	      2.21419999	     -0.80478730	     -0.10341959	      2.21419999	     -0.66276601	     -0.08402785	      1.85703571	     -0.61542558	     -0.05170527	      1.41062589	     -0.56808515	     -0.64635210	     10.30166698	     -4.21269224	      0.00000000	      0.00000000	      0.00000000	      0.00000000	      0.00000001	     63.23427771	    -15.80530338	     13.88300711	     47.51467564	     69.51450086	      0.00000000	      2.88008301	     55.60740816	    -16.45772458	      7.31080475	     55.60958120	     68.65055856	      0.00000000	      2.88008301
      0.03300000	    -58.07268537	     -5.74674353	      3.42905904	     -0.25416162	      1.09074393	     -0.04189755	     91.50220593	     -8.73074953	    -13.95189451	     46.69634185	      0.81500491	     13.45608216	      7.32243149	      0.00000000	    120.54067866	     -4.74031631	      4.99406400	    113.07880586	      1.97359748	     19.78020144	     13.68952997	      0.00000000	     -0.09020358	      0.87066327	     -0.77926521	     -0.16751706	      1.15798215	     -0.82796928	     -0.14819545	      2.11693067	     -0.82796928	     -0.10309367	      2.11693067	     -0.68185706	     -0.08376304	      1.77545654	     -0.63315298	     -0.05154232	      1.34865740	     -0.58444891	     -0.64431512	      9.84911701	     -4.33403931	      0.00000000	      0.00000000	      0.00000000	      0.00000000	      0.00000001	     63.13796629	    -15.78927462	     13.80556082	     47.62107897	     69.37527660	      0.00000000	      2.90008055	     55.70534769	    -16.56190606	      7.58352501	     55.63619995	     68.55386019	      0.00000000	      2.90008055
      0.04200000	    -58.15856275	     -5.33548055	      3.51831930	     -0.25427563	      1.09118875	     -0.04212711	     90.66013746	     -8.92142564	    -14.14805332	     45.98949276	      0.80266807	     12.54437368	      8.15784844	      0.00000000	    121.62598065	     -4.79516024	      4.37832400	    113.37692159	      1.97880058	     19.78676774	     13.52012487	      0.00000000	     -0.09016410	      0.81001876	     -0.76845544	     -0.16744375	      1.07732496	     -0.81648391	     -0.14813060	      1.96947962	     -0.81648391	     -0.10304855	      1.96947962	     -0.67239851	     -0.08372638	      1.65179026	     -0.62437005	     -0.05151977	      1.25471907	     -0.57634158	     -0.64403315	      9.16309426	     -4.27391865	      0.00000000	      0.00000000	      0.00000000	      0.00000000	      0.00000001	     62.88581515	    -15.72673908	     13.22784032	     47.82145091	     67.11008398	      0.00000000	      3.26670762	     56.01218315	    -16.82107919	      8.71276055	     55.56812224	     66.54792612	      0.00000000	      3.26670762
      0.05000000	    -58.25410191	     -5.07421955	      3.67755708	     -0.25438328	      1.09186429	     -0.04273479	     89.73101415	     -9.10011581	    -14.35514505	     45.28295376	      0.79033664	     11.77029303	      8.36154867	      0.00000000	    122.77551612	     -4.72954163	      3.81899676	    113.51264807	      1.98116945	     20.02221676	     13.38784674	      0.00000000	     -0.08981811	      0.77664231	     -0.79065569	     -0.16680121	      1.03293428	     -0.84007167	     -0.14756217	      1.88832812	     -0.84007167	     -0.10265312	      1.88832812	     -0.69182373	     -0.08340510	      1.58372901	     -0.64240775	     -0.05132207	      1.20301894	     -0.59299177	     -0.64156178	      8.78553319	     -4.39738974	      0.00000000	      0.00000000	      0.00000000	      0.00000000	      0.00000001	     62.85370205	    -15.73119815	     13.25724082	     48.00897506	     66.99417320	      0.00000000	      3.28483512	     56.16922449	    -16.90224349	      8.95180199	     55.45255811	     66.46217034	      0.00000000	      3.28483512
      0.05800000	    -58.35779890	     -4.82355168	      3.79541932	     -0.25447254	      1.09263791	     -0.04324233	     88.88074106	     -9.25390643	    -14.50157101	     44.86373614	      0.78301991	     10.84245921	      8.69073330	      0.00000000	    123.95544826	     -4.66588772	      3.31552878	    113.49531759	      1.98086698	     20.34365356	     13.15879232	      0.00000000	     -0.08948288	      0.74102019	     -0.80352987	     -0.16617866	      0.98555685	     -0.85375049	     -0.14701143	      1.80171649	     -0.85375049	     -0.10226998	      1.80171649	     -0.70308864	     -0.08309380	      1.51108837	     -0.65286802	     -0.05113052	      1.14784028	     -0.60264740	     -0.63916727	      8.38256861	     -4.46899209	      0.00000000	      0.00000000	      0.00000000	      0.00000000	      0.00000001	     62.79692943	    -15.77343382	     13.21352954	     48.17235063	     66.88590062	      0.00000000	      3.30079760	     56.32355765	    -16.98720894	      9.28651548	     55.39322759	     66.39789328	      0.00000000	      3.30079760
